<svg xmlns="http://www.w3.org/2000/svg" viewBox="0 0 200 200" role="img" aria-label="Green frog holding a yellow pencil"><title>Green frog holding a yellow pencil</title><ellipse cx="100" cy="188" rx="62" ry="7" fill="#1F2A24" opacity=".08"/><ellipse cx="52" cy="160" rx="30" ry="23" fill="#2F8F5B"/><ellipse cx="148" cy="160" rx="30" ry="23" fill="#2F8F5B"/><ellipse cx="42" cy="181" rx="22" ry="8" fill="#2F8F5B"/><ellipse cx="158" cy="181" rx="22" ry="8" fill="#2F8F5B"/><ellipse cx="100" cy="143" rx="56" ry="44" fill="#5DB572"/><ellipse cx="100" cy="152" rx="36" ry="30" fill="#FFF9EC"/><ellipse cx="74" cy="182" rx="15" ry="7" fill="#2F8F5B"/><ellipse cx="126" cy="182" rx="15" ry="7" fill="#2F8F5B"/><g transform="rotate(-38 132 150)"><rect x="96" y="142" width="74" height="16" rx="3" fill="#F6C445"/><rect x="96" y="142" width="74" height="5" fill="#fff" opacity=".35"/><rect x="164" y="142" width="12" height="16" rx="3" fill="#F07A5A"/><rect x="160" y="142" width="6" height="16" fill="#C9CED6"/><path d="M96 142l-18 8 18 8z" fill="#F3D9A8"/><path d="M84 147.3l-6 2.7 6 2.7z" fill="#1F2A24"/></g><ellipse cx="116" cy="156" rx="11" ry="9" fill="#8CCB6E"/><ellipse cx="140" cy="140" rx="11" ry="9" fill="#8CCB6E"/><ellipse cx="100" cy="97" rx="68" ry="45" fill="#5DB572"/><circle cx="64" cy="60" r="24" fill="#5DB572"/><circle cx="136" cy="60" r="24" fill="#5DB572"/><circle cx="100" cy="80" r="6" fill="#8CCB6E"/><circle cx="86" cy="72" r="3.5" fill="#8CCB6E"/><circle cx="115" cy="73" r="4" fill="#8CCB6E"/><circle cx="64" cy="60" r="16" fill="#fff"/><circle cx="136" cy="60" r="16" fill="#fff"/><circle cx="64" cy="62" r="9" fill="#1F2A24"/><circle cx="136" cy="62" r="9" fill="#1F2A24"/><circle cx="67" cy="58" r="3" fill="#fff"/><circle cx="139" cy="58" r="3" fill="#fff"/><ellipse cx="52" cy="106" rx="10" ry="6" fill="#F4A09A" opacity=".85"/><ellipse cx="148" cy="106" rx="10" ry="6" fill="#F4A09A" opacity=".85"/><path d="M80 110q20 16 40 0" fill="none" stroke="#1F2A24" stroke-width="4.5" stroke-linecap="round"/></svg>
