<svg xmlns="http://www.w3.org/2000/svg" viewBox="0 0 48 48" width="48" height="48" fill="none" stroke="currentColor" stroke-width="2" stroke-linecap="round" stroke-linejoin="round" role="img" aria-label="Hugs and kisses"><title>Hugs and kisses</title><circle cx="15.5" cy="9.5" r="4" fill="#fff"/><circle cx="32.5" cy="9.5" r="4" fill="#fff"/><ellipse cx="12.5" cy="31" rx="3.8" ry="5.5" fill="#fff"/><ellipse cx="35.5" cy="31" rx="3.8" ry="5.5" fill="#fff"/><ellipse cx="18" cy="41.5" rx="4.5" ry="3" fill="#fff"/><ellipse cx="30" cy="41.5" rx="4.5" ry="3" fill="#fff"/><ellipse cx="24" cy="32.5" rx="10.5" ry="9.5" fill="#fff"/><circle cx="24" cy="16" r="9.5" fill="#fff"/><ellipse cx="24" cy="19.5" rx="4.2" ry="3.2"/><circle cx="24" cy="18.6" r="1.3" fill="currentColor" stroke="none"/><circle cx="20.3" cy="13.8" r="1.2" fill="currentColor" stroke="none"/><circle cx="27.7" cy="13.8" r="1.2" fill="currentColor" stroke="none"/><path d="M24 38.5C21.5 36.8 20 35.4 20 33.8C20 32.7 20.8 31.9 21.9 31.9C22.8 31.9 23.5 32.4 24 33.1C24.5 32.4 25.2 31.9 26.1 31.9C27.2 31.9 28 32.7 28 33.8C28 35.4 26.5 36.8 24 38.5Z"/></svg>
